<svg xmlns="http://www.w3.org/2000/svg" viewBox="0 0 100 100">
<defs><linearGradient id="g" x1="0" y1="0" x2="1" y2="1"><stop offset="0" stop-color="#17615B"/><stop offset="1" stop-color="#0B2F33"/></linearGradient></defs>
<rect width="100" height="100" fill="url(#g)"/><rect x="12.70" y="28" width="9.46" height="44" rx="2.2" fill="#F6E7C8"/><rect x="23.56" y="28" width="9.46" height="44" rx="2.2" fill="#F6E7C8"/><rect x="34.41" y="28" width="9.46" height="44" rx="2.2" fill="#F6E7C8"/><rect x="45.27" y="28" width="9.46" height="44" rx="2.2" fill="#F6E7C8"/><rect x="56.13" y="28" width="9.46" height="44" rx="2.2" fill="#F6E7C8"/><rect x="66.99" y="28" width="9.46" height="44" rx="2.2" fill="#F6E7C8"/><rect x="77.84" y="28" width="9.46" height="44" rx="2.2" fill="#F6E7C8"/><rect x="19.93" y="27.5" width="5.86" height="25.52" rx="1.2" fill="#0B2F33"/><rect x="30.78" y="27.5" width="5.86" height="25.52" rx="1.2" fill="#0B2F33"/><rect x="52.50" y="27.5" width="5.86" height="25.52" rx="1.2" fill="#0B2F33"/><rect x="63.35" y="27.5" width="5.86" height="25.52" rx="1.2" fill="#0B2F33"/><rect x="74.21" y="27.5" width="5.86" height="25.52" rx="1.2" fill="#0B2F33"/>
</svg>
